# xmcd
#
# Track frame offsets:
#	150
#	19709
#	35975
#	49139
#	68963
#	85583
#	96193
#	118369
#	131599
#	152474
#	173468
#	196382
#	214349
#	240002
#	250258
#	262074
#	279437
#
# Disc length: 3978 seconds
#
# Revision: 2
# Processed by: cddbd v1.5.2PL0 Copyright (c) Steve Scherf et al.
# Submitted via: audiograbber 1.83.01
#
DISCID=ec0f8811
DTITLE=Sampler - Sweet Home Alabama - Real Southern Flavour Vol.3 CD1
DYEAR=1900
DGENRE=Southern Rock
TTITLE0=The Artimus Pyle Band  - Pearl Necklace
TTITLE1=Jim Dandy's Black Oak Arkansas - Jim Dandy To The Rescue '99
TTITLE2=Canned Heat - Going Up The Country (Live)
TTITLE3=The Outlaws - Hurry Sundown
TTITLE4=The Ozark Mountain Daredevils - If You Wanna Get To Heaven
TTITLE5=Waylon Jennings - Sally Was A Good Old Girl
TTITLE6=The Atlanta Rhythm Section - Spooky
TTITLE7=Alabama - Patches
TTITLE8=Jim Dandy's Black Oak Arkansas - La Grange
TTITLE9=George Lynch and Kelley Hansen - Rock You Like A Hurricane
TTITLE10=Molly Hatchet - Get In The Game (Live)
TTITLE11=The Ozark Mountain Daredevils - Jackie Blue
TTITLE12=Pat Travers and Carmine Appice - Babylon Baby
TTITLE13=Johnny Paycheck - A-11
TTITLE14=Willie Nelson - Night Life
TTITLE15=Rick Derringer - Hang On Sloopy
TTITLE16=Asleep At The Wheel - Cotton Eyed Joe (Live)
EXTD=
EXTT0=
EXTT1=
EXTT2=
EXTT3=
EXTT4=
EXTT5=
EXTT6=
EXTT7=
EXTT8=
EXTT9=
EXTT10=
EXTT11=
EXTT12=
EXTT13=
EXTT14=
EXTT15=
EXTT16=
PLAYORDER=
